# xmcd
#
# Track frame offsets: 
#        150
#        18513
#        38628
#        52507
#        71402
#        90301
#        103096
#        120419
#        133114
#        157373
#
# Disc length: 2472 seconds
#
# Revision: 0
# Processed by: cddbd v1.5.2PL0 Copyright (c) Steve Scherf et al.
# Submitted via: ExactAudioCopy v0.99pb3
#
DISCID=7809a60a
DTITLE=Steve Newman - Steven Newman
DYEAR=1900
DGENRE=
TTITLE0=Shake
TTITLE1=Cabo
TTITLE2=Rag and Roll
TTITLE3=Sambanessa
TTITLE4=Sleazy Blues
TTITLE5=Las Palmas
TTITLE6=Window Rock
TTITLE7=Places
TTITLE8=Venus
TTITLE9=Cucaracha
EXTD=
EXTT0=
EXTT1=
EXTT2=
EXTT3=
EXTT4=
EXTT5=
EXTT6=
EXTT7=
EXTT8=
EXTT9=
PLAYORDER=
